<?xml version="1.0" encoding="UTF-8"?>
<svg width="456.02" height="604.7" fill="none" version="1.1" viewBox="0 0 456.02 604.7" xmlns="http://www.w3.org/2000/svg">
 <g fill="#231f20">
  <path d="m172.49 412.35c2.386 5.237 10.966 2.33 6.916-5.235-4.054-7.563-13.843-6.979-13.843-6.979 7.165 3.495 4.54 6.979 6.927 12.214z"/>
  <path d="m275.06 412.16c3.121-5.626-0.31-9.367 9.05-13.12 0 0-12.801-0.62-18.11 7.494-5.308 8.12 5.94 11.248 9.06 5.626z"/>
  <path d="m224.01 504.01v-30.202s1.469 3.804 1.469 14.341c0 10.539-1.469 18.943-1.469 15.861zm-4.676-30.945c-1.031 0-8.716 1.541-8.716 1.541-4.316-0.216-4.899 4.907-4.899 4.907s-2.492-8.639 3.95-8.349c6.437 0.297 13.029 1.901 9.665 1.901zm-6.152 19.183s4.828-4.394 1.757-11.858c0 0 6 9.656-1.757 11.858zm16.001 18.101c-4.196-0.685-2.417-7.62-2.417-7.62l-0.073 0.041c2.434-1.416 6.346-3.845 10.937-7.309 7.751-5.849 6.583-15.659 6.14-21.365-0.435-5.708-10.095-4.828-13.171-3.372-3.069 1.469-6.589 0.88-6.589 0.88s-3.509 0.589-6.585-0.88c-3.075-1.456-12.731-2.336-13.174 3.372-0.436 5.706-1.608 15.516 6.15 21.365 4.574 3.453 8.476 5.883 10.916 7.304l-0.062-0.036s1.788 6.935-2.413 7.62c-4.193 0.683-18.055 1.56-19.223 2.336h7.22c3.511 2.347 17.171 3.612 17.171 3.612s13.667-1.265 17.175-3.612h7.225c-1.177-0.776-15.029-1.653-19.227-2.336"/>
  <path d="m281.98 287.18c23.423-21.956 65.868-31.328 65.868-31.328-73.476 4.1-109.48 80.508-109.48 80.508s20.194-27.23 43.612-49.18"/>
  <path d="m371.52 283.13c-7e-3 -4e-3 -0.012-4e-3 -0.022-4e-3 -16.944-1.757-44.078-2.652-65.812 5.52-34.252 12.88-64.694 53.862-64.694 53.862 10.833 24.298 38.061 8.485 38.061 8.485 21.956-54.449 81.375-60.589 95.137-60.889 2.27-0.042 4.131-0.207 5.702-0.446h0.02l0.022-8e-3c7.896-1.18 7.72-4.23 7.72-4.23s17.275-22.246 0-33.946c0 0-2.738 32.634-16.134 31.656z"/>
  <path d="m455.67 90.46s-1.706-9.66-3.618-13.169c-0.642-8.792-40.687-76.991-40.687-76.991s23.859 48.149 30.888 63.956c7.028 15.805 0 18.368 0 18.368 8.485-1.7253 9.779-3.8093 9.881-4.7853 0.476 3.6907 2.8 24.985-6.896 26.907l-0.35 0.042c-2.202 0.155-4.363 0.383-6.482 0.682l-0.485 0.05 0.237-0.02c-35.714 5.024-58.404 27.694-58.404 27.694-47.428 48.016-13.361 97.48-11.134 102.96 5.273 12.964-9.944 15.316-9.944 15.316 18.732-3.514 28.973 0 28.973 0-30.735-48.894-18.728-83.43-18.728-83.43 17.933-55.15 71.047-62.495 81.363-63.411l1.768-0.121s5.374 0.877 3.618-14.05"/>
  <path d="m350.19 149.3c33.817-61.919 84.313-65.279 84.313-65.279s-52.408 0-86.654 64.111c-30.246 56.607 0 107.72 0 107.72-22.838-57.959 2.341-106.56 2.341-106.56z"/>
  <path d="m434.5 83.287c3.805-1.004 2.637-3.9547 2.637-3.9547-2.492-6.4346-25.772-78.825-25.772-78.825 3.231 13.613 22.247 72.391 23.86 76.784 1.611 4.3827-0.725 5.996-0.725 5.996z"/>
  <path d="m386.49 324.07c5.711-12.151-30.746-12.891-45.964-4.982-15.228 7.9-16.106 19.615-12.88 30.736 3.215 11.123-3.226 30.448-13.181 31.327-9.943 0.877-9.653 9.653-9.653 9.653 7.908 0 38.056-10.242 62.057-29.268 24.009-19.03-2.929-11.128-2.051-21.372s15.962-3.949 21.672-16.094z"/>
  <path d="m301.99 344.74c0.827-1.044 1.736-2.15 2.728-3.317zm-6.628 9.323s1.026-1.768 3.164-4.753c0.538 1.121 2.894 6.485 1.168 11.049-1.954 5.121-2.792 16.54 2.482 10.832 5.273-5.711-1.758-4.979 6.15-12.733 7.887-7.754-3.484-17.13-3.509-17.155 6.291-7.417 15.929-17.268 29.589-27.409 27.807-20.639 70.954-12.084 70.954-12.084-80.946-22.536-110 52.253-110 52.253z"/>
  <path d="m387.09 376.46c-20.421 25.672-65.2 25.083-65.2 25.083s45.722 6.682 67.823-23.326c22.089-30.004 16.527-64.985 16.527-64.985s-0.879 40.244-19.15 63.228z"/>
  <path d="m226.74 467.89c2.151-0.773 5.856-1.355 14.245-1.355 8.394 0 6.048 20.686 6.048 20.686 0.546-3.568 2.459-8.571 4.06-12.323 0.638 3.732 1.231 9.604 0.435 16.416-1.364 11.715 9.956 12.688 5.852 24.98 0 0 13.841-5.464 16.973-19.12 3.132-13.664 7.619-34.159 5.862-57.185 0 0-0.972-9.175-0.588-12.104 0.39-2.93 1.741-18.356-5.274-8.588-7.02 9.762-13.654-2.435-14.044-2.287-0.392 0.145-5.184 5.945-8.904 0-0.51-1.948-0.849-3.079-0.849-3.079 0 9.371-6.347 14.935-9.571 13.18-3.216-1.757-15.51-1.174-15.51-1.174 2.63 20.69 1.265 41.953 1.265 41.953z"/>
  <path d="m66.23 251.47c-9.521 26.928 6.631 38.929 6.631 38.929-11.075-15.077-6.631-38.929-6.631-38.929z"/>
  <path d="m194.6 480.58c-0.34-0.86-0.693-1.703-1.025-2.476-0.628 3.725-1.219 9.604-0.428 16.419 0.332 2.828-0.087 5.024-0.841 6.912 1.658-2.61 3.06-5.543 2.522-10.115-0.454-3.991-0.446-7.641-0.228-10.74z"/>
  <path d="m200.22 471.43c-1.716 2.027-2.465 5.591-2.739 9.118 0.838 2.366 1.546 4.732 1.839 6.677 0 0-1.095-9.688 0.9-15.795"/>
  <path d="m66.23 251.47s0.28-0.476 0.776-1.355c-0.266 0.455-0.507 0.89-0.776 1.355z"/>
  <path d="m3.7994 74.468c9.2453-20.405 37.55-74.468 37.55-74.468-16.981 27.155-31.726 60.653-37.55 74.468z"/>
  <path d="m1.9015 81.126s0.136-3.6294 6.0374-2.42l-3.6734-0.9294s-1.1733-0.352-2.1053 0.6307c0.424-1.0333 0.972-2.3467 1.6387-3.94-0.7187 1.5933-1.3067 2.9467-1.7787 4.0853-0.3867 0.4854-0.7187 1.1987-0.8773 2.3467-0.7187 5.2907-2.8894 21.072 1.7106 22.016 0 0-2.0466-2.987-1.804-9.9643 0.1294-3.588 0.852-11.825 0.852-11.825z"/>
  <path d="m182.25 406.42c6.628 10.143-7.421 14.044-11.324 7.021-3.901-7.021 0.394-11.709-11.32-16.396 0 0 16.007-0.776 22.644 9.375zm121.77 6.617c-3.328-0.125-5.572-2.218-7.069-4.702 0.681-2.803 0.744-7.418-0.997-13.139-2.415-7.904-0.514-11.713-0.596-14.143-0.083-2.422 2.42-6.349-2.259-11.912-2.372-2.817-3.617-5.174-4.264-6.822 1.727-2.922 4.001-5.216 5.727-6.932 1.904-1.912 0-1.324 0-1.324-6.404-2.179-20.024 1.532-20.194 1.582-9.468 2.202-27.149 8.663-35.43-10.206 0 0 1.464-9.372-14.92-6.746-5.719-0.921-9.234-0.361-11.419 0.732 0.027-0.718-5e-3 -1.198-5e-3 -1.198-26.707-54.708-72.664-75.067-105.97-82.574 15.754-31.47 18.64-56.554 13.78-76.524l0.01-0.02s-9.381-71.709-89.477-94.497l0.083-0.0173s-0.1-0.0107-0.259-0.0307c-0.301-0.0933-0.616-0.1653-0.92-0.2479-1.464-0.5734-3.723-2.3147-3.268-7.5974 0.776-10.141 2.756-29.632 7.464-50.611l7.309-26.112-4.176 8.0173-15.625 51.851c-0.956 2.636-1.887 5.1159-2.776 7.4266-5.4774 12.705-9.0854 11.847-9.18 11.827 2.5546 1.528 3.392 1.968 5.572 2.9773 20.009 5.9747 64.54 22.7 81.443 58.373-35.21-31.817-93.754-37.556-93.754-37.556 128.6 24.996 71.683 133.84 64.152 147.2 66.07-112.45-29.357-140.41-57.02-145.98 147.19 27.042 85.743 141.06 81.364 148.77-15.113-2.057-25.12-1.436-25.12-1.436 20.726 1.035 38.787 4.972 54.467 10.58 23.796 11.345 38.775 31.517 44.119 39.691-24.391-13.347-56.523-22.186-91.659-11.467 0 0 91.815-18.916 128.08 59.015-7.23 3.344-19.054 4.281-24.644 4.529 0 0-31.625-68.401-103.73-63.419 0 0 45.348-0.14 73.679 29.13 30.053 31.073 26.928 34.39 26.928 34.39l3.117-0.101c-1.924 0.093-3.117 0.101-3.117 0.101 19.785 2.887 29.511-1.63 33.543-4.552-8.89 13.951-24.602 8.318-33.338 6.28-0.169-0.05-13.788-3.761-20.186-1.582 0 0-1.903-0.588 0 1.324 1.716 1.716 4 4.01 5.725 6.932-0.651 1.648-1.892 4.005-4.264 6.822-4.683 5.563-2.176 9.49-2.259 11.912-0.082 2.43 1.815 6.239-0.6 14.143-1.741 5.721-1.684 10.336-0.992 13.139-1.502 2.484-3.741 4.577-7.08 4.702-8.486 0.31-17.852-11.494-17.852-11.494s9.562 16.486 31.322 22.349c2.532 10.833-2.539 19.211-2.539 19.211-11.521 21.366-17.139 68.994-19.749 102.51v0.02c0.104 25.813 18.081 34.32 29.43 37.128 3.123 0.366 6.126 0.83 9.015 1.369h0.051-4e-3c32.37 5.964 46.914 18.352 47.121 18.524 0 0-4.58-7.06-29.212-16.487-4.528-1.264-9.377-2.42-14.535-3.341v-8e-3h-0.048c-2.886-0.519-5.89-0.975-9.017-1.344-11.345-2.763-29.327-11.115-29.431-36.451v-0.02c2.616-32.904 8.228-79.666 19.754-100.64 0 0 5.077-8.226 2.534-18.869 0.123-4.82-17.057-10.483-17.057-10.483s-4.899 0.136 3.592-0.169c3.333-0.113 5.579-2.176 7.076-4.621-0.693-2.746-0.744-7.282 0.997-12.891 0.016-0.063 0.026-0.117 0.047-0.175 6.709 1.195 9.423 5.175 9.423 5.175 2.63 2.432 3.116 9.56 3.116 9.56-3.799 0.585-3.902 7.117-3.902 7.117s-1.392 8.88-0.028 11.61c1.367 2.738-2.138 22.06-1.168 30.836 0.972 8.79 1.759 26.348 8.778 42.153 7.03 15.812 20.105 15.424 31.425 23.623 0 0 14.957 8 19.444 8.194h1.411c-16.244-4.833-34.78-19.128-34.78-19.128s-0.123-0.052-0.29-0.129c-1.238-3.771-1.012-6.472-0.153-8.745-1.355 2.12-2.451 4.377-2.359 7.474-4.21-2.378-11.928-7.941-14.17-17.718-3.132-13.666-7.62-34.16-5.862-57.186 0 0 0.971-9.174 0.584-12.104-0.393-2.93-1.737-18.357 5.278-8.589 7.017 9.764 13.65-2.435 14.042-2.287 0.378 0.136 4.828 5.5 8.492 0.571 0.299-0.016 0.532 0.068 0.532 0.068 0 9.36 5.138 14.419 8.359 12.656 3.213-1.747 17.2-4.367 17.2-4.367s-12.297-0.584-15.516 1.175c-3.131 1.703-9.195-3.516-9.531-12.417 0.135-0.49 0.218-0.763 0.218-0.763-0.051-1.201-0.083-2.365-0.111-3.464-2.949 0.961-4.489 5.571-7.861-0.517-3.41-6.163-6.662-11.827-17.592-14.751 0 0-4.88-0.971-11.904 0-1.048 0.143-1.912 0.252-2.651 0.331 1.592-6.534 0.052-9.894 0.123-12.083 0.084-2.391-2.419-6.24 2.264-11.704 2.369-2.765 3.614-5.085 4.264-6.697 0.341-2.864-2.32-5.118-4.04-6.814-1.91-1.865 0-1.29 0-1.29 6.398-2.142 18.332 1.502 18.508 1.55 9.457 2.171 27.14 8.502 35.425-10.017 0 0-1.137-7.388 10.472-7.04 0.068 17.128-0.859 64.493-13.087 64.731-14.932 0.296-26.938-17.264-36.305-16.683-5.617 0.349-11.737-0.891-14.745-4.396 1.312 6.093 9.288 8.219 16.43 7.771 9.371-0.591 21.372 16.98 36.306 16.682 10.62-0.205 12.201-35.981 12.228-56.605v7e-3c0.03 20.621 1.613 56.393 12.238 56.598 0.688 0.019 1.364-0.044 2.038-0.106l-0.063 0.041s9.54 0.065 12.569 0.943c3.02 0.88 4.554 5.693 7.971-0.468 3.411-6.163 6.657-11.827 17.593-14.751 0 0 4.88-0.971 11.899 0 2.367 0.331 3.881 0.484 4.796 0.385 0 0.886-1.18 1.454-1.18 1.454-7.125 1.06-9.952 5.289-9.952 5.289-2.636 2.432-3.128 9.56-3.128 9.56 3.799 0.585 3.903 7.117 3.903 7.117s1.396 8.88 0.03 11.61c-1.365 2.738 2.144 22.06 1.17 30.836-0.972 8.79-1.759 26.348-8.788 42.153-7.019 15.812-20.095 15.424-31.414 23.623 0 0-14.958 8-19.45 8.194 0 0 1.938 32.924 0.296 64.32l-0.296 4.946v0.016l0.012-6e-3 0.014 6e-3v-0.016c0.239-0.19 17.967-14.602 50.322-20.555h0.041c2.893-0.539 5.901-1.003 9.024-1.369 11.344-2.808 29.327-11.315 29.431-37.128v-0.02c-2.618-33.514-8.231-81.142-19.751-102.51 0 0-5.08-8.378-2.537-19.211 21.76-5.863 31.322-22.349 31.322-22.349s-9.366 11.804-17.864 11.494"/>
  <path d="m80.878 361.54c24.001 19.027 54.157 29.268 62.064 29.268 0 0 0.289-8.776-9.66-9.653-9.955-0.878-16.394-20.203-13.175-31.326 3.22-11.122 2.341-22.836-12.88-30.737-15.227-7.909-51.669-7.169-45.959 4.981 5.706 12.147 20.783 5.851 21.662 16.096 0.88 10.243-26.054 2.342-2.052 21.371z"/>
  <path d="m143.03 341.43c0.992 1.167 1.903 2.274 2.724 3.318zm9.356 12.64s-29.053-74.788-110-52.252c0 0 43.147-8.554 70.959 12.084 13.661 10.14 23.303 19.992 29.591 27.408-0.03 0.027-11.402 9.402-3.51 17.155 7.91 7.755 0.88 7.023 6.151 12.733 5.261 5.708 4.435-5.71 2.487-10.832-1.731-4.564 0.618-9.928 1.158-11.049 2.144 2.985 3.168 4.753 3.168 4.753"/>
  <path d="m60.669 376.46c-18.281-22.984-19.165-63.228-19.165-63.228s-5.561 34.981 16.54 64.985c22.104 30.008 67.821 23.326 67.821 23.326s-44.78 0.589-65.196-25.083"/>
 </g>
</svg>
